<svg width="600" height="360" viewBox="0 0 600 360" xmlns="http://www.w3.org/2000/svg">
  <defs>
    <linearGradient id="bg" x1="0" x2="1" y1="0" y2="1">
      <stop offset="0" stop-color="#0f172a" />
      <stop offset="1" stop-color="#020617" />
    </linearGradient>
    <linearGradient id="accent" x1="0" x2="1" y1="0" y2="0">
      <stop offset="0" stop-color="#38bdf8" />
      <stop offset="1" stop-color="#6366f1" />
    </linearGradient>
  </defs>
  <rect width="600" height="360" rx="24" fill="url(#bg)" />
  <rect x="40" y="60" width="520" height="40" rx="10" fill="#020617" stroke="#1f2937" />
  <rect x="40" y="130" width="240" height="150" rx="16" fill="#020617" stroke="#1f2937" />
  <rect x="320" y="130" width="240" height="150" rx="16" fill="#020617" stroke="#1f2937" />
  <rect x="60" y="80" width="140" height="8" rx="4" fill="#64748b" />
  <rect x="60" y="155" width="80" height="8" rx="4" fill="#1e293b" />
  <rect x="60" y="172" width="120" height="6" rx="3" fill="#111827" />
  <rect x="60" y="188" width="90" height="6" rx="3" fill="#111827" />
  <rect x="340" y="155" width="80" height="8" rx="4" fill="#1e293b" />
  <rect x="340" y="172" width="120" height="6" rx="3" fill="#111827" />
  <rect x="340" y="188" width="90" height="6" rx="3" fill="#111827" />
  <path d="M80 240 Q 140 200 200 230 T 260 220" fill="none" stroke="url(#accent)" stroke-width="3"/>
  <rect x="340" y="210" width="140" height="14" rx="7" fill="#020617" stroke="#1f2937"/>
  <rect x="344" y="213" width="72" height="8" rx="4" fill="url(#accent)"/>
  <text x="300" y="320" text-anchor="middle" fill="#9ca3af" font-size="13" font-family="system-ui, -apple-system, BlinkMacSystemFont, 'Segoe UI', sans-serif">
    Analytics visualization placeholder
  </text>
</svg>
